<svg width="68" height="68" viewBox="0 0 68 68" fill="none" xmlns="http://www.w3.org/2000/svg">
<mask id="mask0_118_11" style="mask-type:alpha" maskUnits="userSpaceOnUse" x="0" y="0" width="68" height="68">
<rect width="68" height="68" fill="#D9D9D9"/>
</mask>
<g mask="url(#mask0_118_11)">
<path d="M88.6 65.9L57.6 96.9C54 100.65 48.6 103.3 42.9 103.3H19.6C16.65 103.3 14 104.45 12.05 106.4L4.3 113.7H-31L2.95 79.3L2.9 79.25C6.5 75.65 11.55 73.4 17.1 73.35H50.6C54.15 73.35 57 76.2 57 79.75C57 83.3 54.15 86.15 50.6 86.15H23.6C22.45 86.05 21.5 87 21.5 88.25C21.5 89.5 22.45 90.4 23.65 90.4H50.5C53.35 90.5 56.05 89.3 58.05 87.3C60.05 85.3 61.15 82.55 61.15 79.75C61.25 78.45 60.9 77.05 60.45 75.85L79.5 56.8C82.05 54.25 86.05 54.25 88.55 56.7C91.15 59.25 91.1 63.4 88.6 65.9ZM0.5 33.7C0.5 15.1 15.4 0 34 0C52.6 0 67.6 15 67.6 33.6C67.6 52.2 52.55 67.2 34.05 67.2C15.55 67.2 0.5 52.2 0.5 33.7ZM38.45 41.45C38.45 43.75 36.55 45.45 32.7 45.45C29.1 45.45 25.75 44.2 23.6 43.15L21.9 49.95C23.85 51.05 27.9 52.1 31.9 52.1V57.2H36.55V51.95C43.35 50.45 46.55 46.4 46.55 41.15C46.55 35.9 43.6 32.65 37.25 30.35C32.65 28.45 30.5 27.55 30.5 25.2C30.5 23.5 32.35 21.8 35.75 21.8C39.15 21.8 41.65 22.85 43.2 23.5L45.1 16.85C43.05 15.75 40.25 14.95 36.4 14.95V9.75H31.75V15.3C25.55 16.55 22.15 20.55 22.15 25.7C22.15 31.25 26 34.35 32.15 36.5C36.6 38.2 38.45 39.15 38.45 41.45Z" fill="#3366FF"/>
</g>
</svg>
