<svg width="72" height="72" viewBox="0 0 72 72" fill="none" xmlns="http://www.w3.org/2000/svg">
<mask id="mask0_118_14" style="mask-type:alpha" maskUnits="userSpaceOnUse" x="0" y="0" width="72" height="72">
<rect width="72" height="72" rx="7" fill="#3366FF"/>
</mask>
<g mask="url(#mask0_118_14)">
<path d="M90.6 68.9L59.6 99.9C56 103.65 50.6 106.3 44.9 106.3H21.6C18.65 106.3 16 107.45 14.05 109.4L6.3 116.7H-29L4.95 82.3L4.9 82.25C8.5 78.65 13.55 76.4 19.1 76.35H52.6C56.15 76.35 59 79.2 59 82.75C59 86.3 56.15 89.15 52.6 89.15H25.6C24.45 89.05 23.5 90 23.5 91.25C23.5 92.5 24.45 93.4 25.65 93.4H52.5C55.35 93.5 58.05 92.3 60.05 90.3C62.05 88.3 63.15 85.55 63.15 82.75C63.25 81.45 62.9 80.05 62.45 78.85L81.5 59.8C84.05 57.25 88.05 57.25 90.55 59.7C93.15 62.25 93.1 66.4 90.6 68.9ZM2.5 36.7C2.5 18.1 17.4 3 36 3C54.6 3 69.6 18 69.6 36.6C69.6 55.2 54.55 70.2 36.05 70.2C17.55 70.2 2.5 55.2 2.5 36.7ZM40.45 44.45C40.45 46.75 38.55 48.45 34.7 48.45C31.1 48.45 27.75 47.2 25.6 46.15L23.9 52.95C25.85 54.05 29.9 55.1 33.9 55.1V60.2H38.55V54.95C45.35 53.45 48.55 49.4 48.55 44.15C48.55 38.9 45.6 35.65 39.25 33.35C34.65 31.45 32.5 30.55 32.5 28.2C32.5 26.5 34.35 24.8 37.75 24.8C41.15 24.8 43.65 25.85 45.2 26.5L47.1 19.85C45.05 18.75 42.25 17.95 38.4 17.95V12.75H33.75V18.3C27.55 19.55 24.15 23.55 24.15 28.7C24.15 34.25 28 37.35 34.15 39.5C38.6 41.2 40.45 42.15 40.45 44.45Z" fill="#3366FF"/>
</g>
</svg>
