<svg width="72" height="72" viewBox="0 0 72 72" fill="none" xmlns="http://www.w3.org/2000/svg">
<mask id="mask0_118_13" style="mask-type:alpha" maskUnits="userSpaceOnUse" x="0" y="0" width="72" height="72">
<rect width="72" height="72" rx="7" fill="#D9D9D9"/>
</mask>
<g mask="url(#mask0_118_13)">
<path d="M90.6 67.9L59.6 98.9C56 102.65 50.6 105.3 44.9 105.3H21.6C18.65 105.3 16 106.45 14.05 108.4L6.3 115.7H-29L4.95 81.3L4.9 81.25C8.5 77.65 13.55 75.4 19.1 75.35H52.6C56.15 75.35 59 78.2 59 81.75C59 85.3 56.15 88.15 52.6 88.15H25.6C24.45 88.05 23.5 89 23.5 90.25C23.5 91.5 24.45 92.4 25.65 92.4H52.5C55.35 92.5 58.05 91.3 60.05 89.3C62.05 87.3 63.15 84.55 63.15 81.75C63.25 80.45 62.9 79.05 62.45 77.85L81.5 58.8C84.05 56.25 88.05 56.25 90.55 58.7C93.15 61.25 93.1 65.4 90.6 67.9ZM2.5 35.7C2.5 17.1 17.4 2 36 2C54.6 2 69.6 17 69.6 35.6C69.6 54.2 54.55 69.2 36.05 69.2C17.55 69.2 2.5 54.2 2.5 35.7ZM40.45 43.45C40.45 45.75 38.55 47.45 34.7 47.45C31.1 47.45 27.75 46.2 25.6 45.15L23.9 51.95C25.85 53.05 29.9 54.1 33.9 54.1V59.2H38.55V53.95C45.35 52.45 48.55 48.4 48.55 43.15C48.55 37.9 45.6 34.65 39.25 32.35C34.65 30.45 32.5 29.55 32.5 27.2C32.5 25.5 34.35 23.8 37.75 23.8C41.15 23.8 43.65 24.85 45.2 25.5L47.1 18.85C45.05 17.75 42.25 16.95 38.4 16.95V11.75H33.75V17.3C27.55 18.55 24.15 22.55 24.15 27.7C24.15 33.25 28 36.35 34.15 38.5C38.6 40.2 40.45 41.15 40.45 43.45Z" fill="#3366FF"/>
</g>
</svg>
